<svg xmlns="http://www.w3.org/2000/svg" viewBox="0 0 126.08 108.74"><defs><style>.cls-1{fill:#fff;fill-rule:evenodd;}</style></defs><g id="Layer_2" data-name="Layer 2"><g id="Layer_1-2" data-name="Layer 1"><path class="cls-1" d="M125.54,20.23c.94-5.27.92-10.7-2.34-14.81C118.65-.33,109-.55,102.34.47c-5.4.82-23.65,8.88-29.86,28.16,11-.84,16.77.79,15.71,12.9-.44,5.07-3,10.63-5.86,15.95C79,63.62,72.84,75.67,64.72,67,57.41,59.16,58,44.21,56.29,34.25c-.93-5.58-1.92-12.54-3.75-18.29C51,11,47.35,5.06,42.93,3.77c-4.75-1.4-10.63.78-14.08,2.82C17.87,13,9.5,22.22,0,29.8v.71c1.88,1.8,2.39,4.75,5.16,5.15,6.54,1,12.77-6.09,17.12,1.25,2.65,4.49,3.47,9.41,5.17,14.24,2.26,6.45,4,13.46,5.86,20.87,3.13,12.55,7,31.3,17.83,35.89,5.53,2.35,13.85-.79,18.06-3.29,11.41-6.75,20.29-16.54,27.9-26.5C114.5,54.56,124.09,27.86,125.54,20.23Z"/></g></g></svg>